<?xml version="1.0" standalone="no"?>
<!DOCTYPE svg PUBLIC "-//W3C//DTD SVG 20010904//EN"
 "http://www.w3.org/TR/2001/REC-SVG-20010904/DTD/svg10.dtd">
<svg version="1.0" xmlns="http://www.w3.org/2000/svg"
 width="260.000000pt" height="260.000000pt" viewBox="0 0 260.000000 260.000000"
 preserveAspectRatio="xMidYMid meet">
<metadata>
Created by potrace 1.11, written by Peter Selinger 2001-2013
</metadata>
<g transform="translate(0.000000,260.000000) scale(0.100000,-0.100000)"
fill="#000000" stroke="none">
<path d="M0 1300 l0 -1300 1300 0 1300 0 0 1300 0 1300 -1300 0 -1300 0 0
-1300z m800 205 l0 -156 -157 147 -158 146 -3 -171 c-1 -94 -1 -248 0 -342 l3
-172 152 142 c83 77 154 141 157 141 3 0 6 -70 6 -155 l0 -155 -202 0 c-284 0
-352 20 -451 130 -92 102 -117 256 -62 379 47 104 154 188 268 210 23 5 133 9
245 10 l202 1 0 -155z m810 0 l0 -156 -157 147 -158 146 -3 -171 c-1 -94 -1
-248 0 -342 l3 -172 152 142 c83 77 154 141 157 141 3 0 6 -70 6 -155 l0 -155
-202 0 c-284 0 -352 20 -451 130 -92 102 -117 256 -62 379 47 104 154 188 268
210 23 5 133 9 245 10 l202 1 0 -155z m920 -6 c0 -128 -3 -159 -12 -151 -7 6
-53 69 -103 141 -49 72 -93 131 -97 131 -5 0 -8 -155 -8 -345 l0 -345 -205 0
-205 0 0 345 c0 190 -3 345 -7 345 -5 0 -50 -61 -102 -136 -52 -74 -98 -137
-103 -140 -4 -3 -8 67 -8 155 l0 161 425 0 425 0 0 -161z m-2112 -809 c4 -12
2 -13 -9 -2 -21 19 -29 14 -29 -18 0 -32 8 -37 29 -17 11 10 13 9 9 -3 -3 -8
-16 -15 -29 -15 -25 0 -37 30 -25 61 7 19 48 14 54 -6z m517 9 c4 -6 4 -13 0
-17 -3 -3 -10 0 -14 7 -11 18 -31 5 -31 -19 0 -26 18 -34 37 -18 14 11 15 11
11 -2 -2 -8 -16 -15 -29 -15 -25 0 -37 30 -25 61 6 16 42 19 51 3z m35 -29 c0
-22 -4 -40 -10 -40 -5 0 -10 18 -10 40 0 22 5 40 10 40 6 0 10 -18 10 -40z
m433 33 c-7 -2 -13 -20 -13 -39 0 -19 -4 -34 -10 -34 -5 0 -10 15 -10 34 0 24
-5 36 -17 39 -10 3 0 5 22 5 22 0 34 -2 28 -5z m147 -3 c0 -5 7 -10 15 -10 10
0 15 -10 15 -30 0 -38 -19 -40 -21 -2 l-2 27 -4 -27 c-7 -42 -23 -33 -23 12 0
22 5 40 10 40 6 0 10 -4 10 -10z m190 -30 c0 -22 -4 -40 -10 -40 -5 0 -10 18
-10 40 0 22 5 40 10 40 6 0 10 -18 10 -40z m273 -33 c18 -4 17 -5 -5 -6 -27
-1 -28 1 -26 42 l1 42 4 -37 c3 -28 9 -38 26 -41z m47 39 c0 -24 5 -36 18 -39
10 -3 6 -5 -10 -6 -26 -1 -28 2 -28 39 0 22 5 40 10 40 6 0 10 -15 10 -34z
m90 19 c9 -10 9 -15 1 -15 -6 0 -11 5 -11 10 0 6 -7 10 -15 10 -10 0 -15 -10
-15 -30 0 -30 23 -43 33 -17 4 9 6 9 6 -1 1 -19 -27 -26 -44 -12 -18 15 -19
42 -3 58 16 16 33 15 48 -3z m-1566 -33 c1 -18 -3 -31 -8 -29 -12 4 -26 53
-18 62 13 13 25 -3 26 -33z m-104 13 c10 -12 10 -18 0 -30 -25 -30 -61 -7 -46
30 3 8 12 15 19 15 8 0 20 -7 27 -15z m68 -17 c2 -16 -1 -28 -7 -28 -6 0 -11
12 -11 27 0 29 -15 22 -23 -12 -3 -13 -5 -8 -6 13 -1 29 2 33 22 30 16 -2 23
-11 25 -30z m96 16 c12 -31 6 -44 -19 -44 -21 0 -25 5 -25 30 0 23 5 30 19 30
10 0 22 -7 25 -16z m23 -31 c-3 -10 -5 -2 -5 17 0 19 2 27 5 18 2 -10 2 -26 0
-35z m71 15 c2 -16 -1 -28 -7 -28 -6 0 -11 11 -11 25 0 14 -4 25 -10 25 -5 0
-10 -11 -10 -25 0 -14 -4 -25 -10 -25 -5 0 -10 14 -10 31 0 27 3 30 28 27 21
-2 28 -9 30 -30z m60 15 c2 -8 -5 -13 -18 -13 -12 0 -18 -4 -15 -11 4 -6 14
-8 22 -5 8 3 11 1 8 -4 -18 -29 -54 3 -41 36 7 18 37 15 44 -3z m34 5 c-5 -7
-12 -22 -15 -33 -3 -13 -5 -9 -6 13 -1 23 3 32 15 32 12 0 14 -3 6 -12z m193
-18 c0 -29 -32 -41 -41 -16 -9 24 4 48 23 44 12 -2 18 -12 18 -28z m35 5 c0
-34 18 -32 23 3 4 25 4 24 6 -6 1 -29 -2 -33 -21 -30 -17 2 -24 11 -26 31 -2
15 1 27 7 27 6 0 11 -11 11 -25z m90 15 c0 -5 -8 -7 -17 -4 -17 5 -17 5 0 -6
9 -6 17 -18 17 -25 0 -17 -36 -20 -46 -4 -4 8 1 9 17 5 20 -6 21 -5 7 4 -24
15 -23 40 2 40 11 0 20 -4 20 -10z m30 -15 c0 -34 18 -32 23 3 4 25 4 24 6 -6
1 -29 -2 -33 -21 -30 -17 2 -24 11 -26 31 -2 15 1 27 7 27 6 0 11 -11 11 -25z
m130 9 c0 -8 -7 -14 -15 -14 -8 0 -15 -5 -15 -11 0 -6 7 -9 15 -5 8 3 15 1 15
-5 0 -21 -45 -4 -48 19 -5 31 -20 28 -25 -5 -4 -27 -4 -27 -6 3 -1 30 1 32 39
32 28 1 40 -3 40 -14z m150 1 c0 -8 -7 -15 -15 -15 -8 0 -15 -5 -15 -11 0 -6
7 -9 15 -5 8 3 15 1 15 -4 0 -16 -40 -11 -46 5 -9 23 3 45 26 45 11 0 20 -7
20 -15z m58 -5 c5 -13 3 -13 -11 -1 -15 12 -17 11 -17 -9 0 -16 4 -20 16 -16
8 3 12 2 9 -4 -18 -29 -54 3 -41 36 7 19 37 15 44 -6z m121 -12 c-2 -31 -2
-31 -6 -5 -5 34 -23 36 -23 2 0 -14 -4 -25 -10 -25 -5 0 -10 14 -10 30 0 25 4
30 25 30 22 0 25 -4 24 -32z m66 2 c0 -18 -6 -26 -21 -28 -23 -3 -37 18 -27
44 10 25 48 13 48 -16z m90 0 c0 -16 -6 -26 -18 -28 -19 -4 -32 20 -23 44 9
25 41 13 41 -16z m63 -7 c-2 -29 -8 -39 -23 -41 -15 -2 -16 -1 -7 6 11 7 11
10 -2 15 -16 6 -22 38 -9 50 3 4 15 7 25 7 16 0 19 -6 16 -37z m32 20 c0 -15
2 -14 15 3 8 10 15 14 15 8 0 -20 -22 -74 -31 -74 -4 0 -6 6 -3 13 3 8 0 26
-5 40 -7 17 -7 27 -1 27 6 0 10 -8 10 -17z m44 -38 c-4 -8 -8 -15 -10 -15 -2
0 -4 7 -4 15 0 8 4 15 10 15 5 0 7 -7 4 -15z"/>
<path d="M450 660 c0 -11 5 -20 10 -20 6 0 10 9 10 20 0 11 -4 20 -10 20 -5 0
-10 -9 -10 -20z"/>
<path d="M610 650 c0 -5 5 -10 10 -10 6 0 10 5 10 10 0 6 -4 10 -10 10 -5 0
-10 -4 -10 -10z"/>
<path d="M995 670 c-4 -6 -3 -16 3 -22 6 -6 12 -6 17 2 4 6 3 16 -3 22 -6 6
-12 6 -17 -2z"/>
<path d="M1670 660 c0 -11 5 -20 10 -20 6 0 10 9 10 20 0 11 -4 20 -10 20 -5
0 -10 -9 -10 -20z"/>
<path d="M1764 669 c-3 -6 -1 -16 5 -22 8 -8 11 -5 11 11 0 24 -5 28 -16 11z"/>
<path d="M1825 670 c-4 -6 -3 -16 3 -22 6 -6 12 -6 17 2 4 6 3 16 -3 22 -6 6
-12 6 -17 -2z"/>
</g>
</svg>
