<?xml version="1.0" standalone="no"?>
<!DOCTYPE svg PUBLIC "-//W3C//DTD SVG 20010904//EN"
 "http://www.w3.org/TR/2001/REC-SVG-20010904/DTD/svg10.dtd">
<svg version="1.0" xmlns="http://www.w3.org/2000/svg"
 width="260.000000pt" height="260.000000pt" viewBox="0 0 260.000000 260.000000"
 preserveAspectRatio="xMidYMid meet">
<metadata>
Created by potrace 1.11, written by Peter Selinger 2001-2013
</metadata>
<g transform="translate(0.000000,260.000000) scale(0.100000,-0.100000)"
fill="#000000" stroke="none">
<path d="M0 1848 c1 -531 4 -748 11 -735 24 41 99 44 120 5 16 -29 2 -35 -21
-10 -12 12 -27 22 -35 22 -23 0 -55 -37 -55 -63 0 -60 69 -92 92 -42 12 28 28
33 28 10 0 -24 -37 -55 -65 -55 -14 0 -37 11 -50 25 l-25 24 0 -514 0 -515
1300 0 1300 0 0 507 0 506 -20 -18 c-47 -42 -111 27 -76 80 19 29 57 33 80 9
15 -14 16 54 16 750 l0 766 -1300 0 -1300 0 0 -752z m648 -9 c85 -15 128 -53
141 -122 9 -53 3 -62 -41 -55 -18 2 -24 11 -29 40 -12 77 -44 88 -269 88 -274
0 -275 -1 -275 -230 0 -179 8 -201 72 -219 49 -14 357 -14 405 -1 46 13 68 43
68 93 0 38 0 38 38 35 37 -3 37 -3 34 -43 -5 -60 -31 -97 -87 -125 -48 -24
-56 -25 -255 -25 -199 0 -207 1 -255 25 -82 41 -90 64 -90 260 0 148 2 169 20
200 25 41 67 68 127 79 64 13 322 13 396 0z m950 -14 c52 -21 80 -59 88 -119
l7 -46 -35 0 c-33 0 -36 2 -44 41 -6 28 -19 49 -37 63 -26 19 -44 21 -211 24
-212 4 -258 -4 -281 -48 -21 -40 -21 -305 -1 -355 21 -50 61 -57 282 -53 167
3 185 5 211 24 20 15 31 34 37 67 9 45 11 47 43 47 31 0 33 -2 33 -32 -1 -61
-33 -113 -86 -139 -47 -23 -58 -24 -259 -24 -194 0 -214 2 -257 22 -35 16 -52
32 -69 64 -19 39 -22 58 -22 199 0 139 3 160 22 198 39 77 99 92 356 88 145
-2 188 -6 223 -21z m902 -15 l0 -30 -145 0 -145 0 0 -250 0 -250 -35 0 -35 0
0 250 0 250 -145 0 -145 0 0 30 0 30 325 0 325 0 0 -30z m-1197 -671 c26 -14
38 -30 30 -42 -3 -5 -14 1 -24 12 -11 12 -28 21 -39 21 -24 0 -50 -36 -50 -69
0 -56 70 -84 92 -36 6 13 15 22 19 19 14 -8 10 -23 -11 -44 -43 -43 -120 -7
-120 56 0 44 15 72 43 84 30 12 35 12 60 -1z m757 -9 c0 -5 -4 -10 -10 -10 -5
0 -10 5 -10 10 0 6 5 10 10 10 6 0 10 -4 10 -10z m-1796 -46 c33 -32 8 -104
-36 -104 -10 0 -27 9 -38 20 -38 38 -16 100 35 100 13 0 31 -7 39 -16z m144
-47 c2 -39 0 -57 -7 -52 -6 3 -11 26 -11 51 0 40 -2 44 -25 44 -23 0 -25 -4
-25 -44 0 -25 -4 -48 -10 -51 -6 -4 -10 16 -10 52 l0 59 43 -1 42 0 3 -58z
m123 47 c11 -14 9 -15 -24 -9 -48 9 -49 -9 -2 -25 24 -8 35 -18 35 -30 0 -39
-80 -52 -94 -15 -6 17 9 21 19 5 3 -5 17 -10 31 -10 35 0 30 27 -7 35 -32 7
-45 25 -35 50 7 20 60 19 77 -1z m61 -31 c2 -37 7 -49 22 -51 24 -5 36 14 36
61 0 20 5 37 10 37 6 0 10 -26 10 -58 l0 -58 -41 1 c-48 1 -59 14 -59 73 0 58
18 53 22 -5z m276 -16 c2 -39 0 -57 -7 -52 -6 3 -11 26 -11 51 0 41 -2 45 -22
42 -20 -3 -23 -10 -26 -50 -4 -64 -22 -61 -22 3 0 47 -2 50 -22 47 -20 -3 -23
-10 -26 -50 -4 -68 -22 -59 -22 11 l0 58 78 -1 77 -1 3 -58z m132 44 c17 -33
11 -41 -30 -41 -29 0 -40 -4 -40 -15 0 -22 29 -30 52 -16 26 16 34 8 13 -13
-50 -50 -121 33 -75 88 18 23 67 20 80 -3z m100 10 c0 -4 -9 -12 -20 -19 -15
-9 -20 -23 -20 -53 0 -24 -4 -38 -10 -34 -5 3 -10 30 -10 59 0 52 0 53 30 53
17 0 30 -3 30 -6z m364 -7 c24 -23 20 -70 -6 -88 -29 -20 -47 -20 -70 1 -38
34 -13 103 37 103 13 0 31 -7 39 -16z m138 4 c11 -19 10 -108 -2 -108 -5 0
-10 23 -10 50 0 46 -2 50 -24 50 -27 0 -36 -16 -36 -66 0 -21 -4 -33 -10 -29
-10 6 -15 97 -6 106 11 11 80 8 88 -3z m73 -30 c15 -53 21 -54 35 -3 7 25 17
45 22 45 5 0 6 -10 2 -22 -34 -109 -45 -118 -67 -56 -8 24 -18 51 -23 62 -5
14 -3 17 7 14 8 -3 18 -21 24 -40z m185 23 c17 -33 11 -41 -30 -41 -29 0 -40
-4 -40 -15 0 -22 29 -30 52 -16 27 16 38 3 14 -15 -26 -18 -45 -18 -68 3 -20
18 -24 73 -6 91 19 19 66 15 78 -7z m132 6 c11 -18 10 -95 -2 -102 -6 -4 -10
13 -10 44 0 47 -2 51 -24 51 -27 0 -36 -16 -36 -66 0 -21 -4 -33 -10 -29 -5 3
-10 30 -10 58 l0 53 42 1 c24 1 46 -3 50 -10z m68 -47 c0 -33 -4 -60 -10 -60
-6 0 -10 27 -10 60 0 33 4 60 10 60 6 0 10 -27 10 -60z m130 41 c17 -33 11
-41 -30 -41 -29 0 -40 -4 -40 -15 0 -22 29 -30 52 -16 26 16 34 8 13 -13 -36
-35 -85 -8 -85 48 0 17 5 37 12 44 19 19 66 15 78 -7z m127 8 c15 -13 18 -95
4 -104 -6 -3 -11 16 -13 42 -2 37 -7 49 -22 51 -24 5 -36 -14 -36 -61 0 -23
-4 -36 -10 -32 -5 3 -10 30 -10 59 l0 53 37 1 c20 1 42 -3 50 -9z m141 -14 c3
-16 1 -18 -9 -7 -7 6 -23 12 -36 12 -27 0 -42 -42 -23 -65 16 -19 29 -19 51 1
9 8 20 11 23 6 3 -5 -4 -17 -15 -27 -15 -15 -25 -17 -47 -9 -63 22 -46 119 21
112 23 -2 33 -9 35 -23z m-2248 -215 c0 -5 -7 -10 -15 -10 -11 0 -15 -12 -15
-50 0 -27 -4 -50 -10 -50 -5 0 -10 23 -10 50 0 43 -3 50 -20 50 -11 0 -20 5
-20 10 0 6 20 10 45 10 25 0 45 -4 45 -10z m200 0 c0 -5 -13 -10 -30 -10 -20
0 -30 -5 -30 -15 0 -10 10 -15 30 -15 17 0 30 -4 30 -10 0 -5 -13 -10 -30 -10
-23 0 -30 -4 -30 -20 0 -16 7 -20 37 -20 26 0 34 -3 26 -11 -6 -6 -26 -9 -44
-7 l-34 3 -3 63 -3 62 41 0 c22 0 40 -4 40 -10z m210 -5 c18 -22 5 -31 -15
-11 -13 12 -21 14 -36 5 -16 -8 -19 -19 -17 -47 3 -42 33 -56 55 -26 15 20 26
14 17 -10 -10 -25 -51 -31 -74 -11 -24 22 -26 77 -4 99 20 20 58 21 74 1z
m150 -10 c0 -21 5 -25 31 -25 26 0 31 3 26 20 -3 11 -1 23 4 26 5 3 9 -22 9
-55 0 -34 -4 -61 -9 -61 -4 0 -6 11 -3 25 4 22 1 25 -27 25 -26 0 -31 -4 -31
-25 0 -14 -4 -25 -10 -25 -6 0 -10 27 -10 60 0 33 4 60 10 60 6 0 10 -11 10
-25z m240 -22 l30 -47 0 47 c0 26 5 47 10 47 6 0 10 -27 10 -60 0 -73 -16 -79
-51 -17 l-24 42 -3 -42 c-4 -62 -22 -53 -22 10 0 47 5 67 17 67 2 0 17 -21 33
-47z m262 30 c24 -21 23 -68 -2 -93 -40 -40 -94 -15 -94 43 0 19 6 42 13 51
17 21 60 20 83 -1z m178 -93 c17 0 30 -4 30 -10 0 -11 -39 -13 -64 -4 -12 5
-16 20 -16 58 0 72 14 81 18 12 3 -55 4 -56 32 -56z m234 94 c24 -24 20 -80
-6 -98 -12 -9 -29 -16 -37 -16 -26 0 -51 32 -51 66 0 38 22 64 55 64 13 0 31
-7 39 -16z m221 0 c9 -9 13 -19 10 -22 -3 -3 -11 0 -17 6 -21 21 -57 14 -64
-12 -10 -41 4 -68 34 -64 31 4 42 34 15 41 -12 3 -8 5 10 6 23 1 27 -3 27 -28
0 -28 -18 -40 -57 -41 -21 0 -53 38 -53 63 0 55 59 87 95 51z m155 -44 c0 -33
-3 -60 -7 -60 -5 0 -6 27 -5 60 5 77 12 77 12 0z m210 50 c0 -5 -16 -10 -35
-10 -24 0 -35 -5 -35 -15 0 -10 10 -15 29 -15 17 0 33 -4 36 -10 4 -6 -8 -10
-29 -10 -29 0 -36 -4 -36 -20 0 -16 7 -20 35 -20 19 0 35 -5 35 -11 0 -6 -16
-9 -37 -7 l-38 3 -3 63 -3 62 41 0 c22 0 40 -4 40 -10z m200 -5 c18 -21 5 -31
-15 -12 -17 17 -45 13 -45 -8 0 -6 15 -16 33 -21 42 -13 46 -54 5 -68 -30 -11
-58 5 -58 33 1 14 2 14 14 -1 18 -24 59 -24 54 -1 -2 9 -14 20 -27 23 -13 3
-29 13 -34 22 -23 36 45 67 73 33z"/>
<path d="M194 1055 c-5 -18 -1 -32 10 -43 23 -23 51 -4 51 34 0 24 -5 30 -27
32 -22 3 -29 -2 -34 -23z"/>
<path d="M930 1066 c0 -11 10 -16 31 -16 38 0 35 24 -4 28 -19 2 -27 -1 -27
-12z"/>
<path d="M1394 1066 c-16 -42 24 -83 52 -54 25 25 11 68 -22 68 -13 0 -27 -6
-30 -14z"/>
<path d="M1797 1074 c-15 -15 -6 -24 24 -24 20 0 29 4 27 13 -5 14 -40 21 -51
11z"/>
<path d="M2127 1074 c-15 -15 -6 -24 24 -24 20 0 29 4 27 13 -5 14 -40 21 -51
11z"/>
<path d="M1202 838 c-29 -29 -7 -78 35 -78 24 0 38 31 31 67 -4 22 -48 29 -66
11z"/>
<path d="M1611 831 c-17 -31 2 -71 34 -71 51 0 52 82 2 88 -18 2 -29 -3 -36
-17z"/>
<path d="M2520 1066 c0 -11 10 -16 31 -16 38 0 35 24 -4 28 -19 2 -27 -1 -27
-12z"/>
<path d="M2517 1033 c-10 -9 13 -33 32 -33 17 1 51 23 51 34 0 8 -75 8 -83 -1z"/>
</g>
</svg>
