<?xml version="1.0" encoding="utf-8"?>
<!-- Generator: Adobe Illustrator 21.1.0, SVG Export Plug-In . SVG Version: 6.00 Build 0)  -->
<svg version="1.1" id="Layer_1" xmlns="http://www.w3.org/2000/svg" xmlns:xlink="http://www.w3.org/1999/xlink" x="0px" y="0px"
	 viewBox="0 0 256 256" style="enable-background:new 0 0 256 256;" xml:space="preserve">
<style type="text/css">
	.st0{fill:#262262;}
	.st1{fill:none;}
</style>
<g>
	<g>
		<path class="st0" d="M17.9,137c-0.7-0.5-1.6-0.8-2.6-0.8c-0.9,0-1.6,0.2-2.2,0.5c-0.6,0.3-1.1,0.8-1.5,1.3
			c-0.4,0.5-0.7,1.2-0.9,1.9c-0.2,0.7-0.3,1.4-0.3,2.2c0,0.8,0.1,1.6,0.3,2.3c0.2,0.7,0.5,1.4,0.9,1.9c0.4,0.5,0.9,1,1.5,1.3
			c0.6,0.3,1.4,0.5,2.2,0.5c0.6,0,1.2-0.1,1.7-0.3s0.9-0.5,1.3-0.9c0.4-0.4,0.6-0.8,0.8-1.3c0.2-0.5,0.3-1.1,0.4-1.7h1.9
			c-0.2,1.8-0.8,3.2-1.9,4.2c-1.1,1-2.5,1.5-4.4,1.5c-1.1,0-2.1-0.2-2.9-0.6c-0.8-0.4-1.5-0.9-2.1-1.6c-0.6-0.7-1-1.5-1.2-2.4
			c-0.3-0.9-0.4-1.9-0.4-3c0-1.1,0.1-2,0.4-3c0.3-0.9,0.7-1.7,1.3-2.4c0.6-0.7,1.3-1.2,2.1-1.6c0.9-0.4,1.8-0.6,2.9-0.6
			c0.8,0,1.5,0.1,2.1,0.3c0.7,0.2,1.3,0.5,1.8,0.9c0.5,0.4,1,0.9,1.3,1.5c0.4,0.6,0.6,1.3,0.7,2h-1.9
			C19.1,138.3,18.6,137.5,17.9,137z"/>
		<path class="st0" d="M24.4,142c0.2-0.7,0.5-1.2,1-1.7c0.4-0.5,1-0.9,1.6-1.2c0.6-0.3,1.4-0.4,2.2-0.4c0.8,0,1.6,0.1,2.2,0.4
			c0.6,0.3,1.2,0.7,1.6,1.2c0.4,0.5,0.8,1.1,1,1.7c0.2,0.7,0.3,1.4,0.3,2.2c0,0.8-0.1,1.5-0.3,2.1c-0.2,0.7-0.5,1.2-1,1.7
			c-0.4,0.5-1,0.9-1.6,1.2c-0.6,0.3-1.4,0.4-2.2,0.4c-0.8,0-1.6-0.1-2.2-0.4c-0.6-0.3-1.2-0.7-1.6-1.2c-0.4-0.5-0.8-1.1-1-1.7
			s-0.3-1.4-0.3-2.1C24.1,143.4,24.2,142.7,24.4,142z M26.2,145.8c0.2,0.5,0.4,0.9,0.7,1.2c0.3,0.3,0.6,0.6,1,0.8
			c0.4,0.2,0.8,0.3,1.3,0.3c0.4,0,0.9-0.1,1.3-0.3c0.4-0.2,0.7-0.4,1-0.8c0.3-0.3,0.5-0.7,0.7-1.2c0.2-0.5,0.3-1.1,0.3-1.7
			c0-0.6-0.1-1.2-0.3-1.7c-0.2-0.5-0.4-0.9-0.7-1.2c-0.3-0.3-0.6-0.6-1-0.8c-0.4-0.2-0.8-0.3-1.3-0.3c-0.4,0-0.9,0.1-1.3,0.3
			c-0.4,0.2-0.7,0.4-1,0.8c-0.3,0.3-0.5,0.8-0.7,1.2c-0.2,0.5-0.3,1.1-0.3,1.7C25.9,144.8,26,145.3,26.2,145.8z"/>
		<path class="st0" d="M39.1,138.9v1.7h0c0.7-1.3,1.8-1.9,3.4-1.9c0.7,0,1.3,0.1,1.7,0.3c0.5,0.2,0.8,0.5,1.1,0.8
			c0.3,0.3,0.5,0.7,0.6,1.2c0.1,0.5,0.2,1,0.2,1.5v6.9h-1.7v-7.1c0-0.6-0.2-1.2-0.6-1.5c-0.4-0.4-0.9-0.6-1.6-0.6
			c-0.5,0-1,0.1-1.4,0.2c-0.4,0.2-0.7,0.4-1,0.7c-0.3,0.3-0.4,0.6-0.6,1c-0.1,0.4-0.2,0.8-0.2,1.3v5.9h-1.7v-10.5H39.1z"/>
		<path class="st0" d="M51.2,147c0.2,0.3,0.4,0.5,0.6,0.6c0.3,0.2,0.6,0.3,0.9,0.3c0.3,0.1,0.7,0.1,1,0.1c0.3,0,0.6,0,0.9-0.1
			c0.3,0,0.6-0.1,0.8-0.2c0.3-0.1,0.5-0.3,0.6-0.5c0.2-0.2,0.2-0.5,0.2-0.8c0-0.4-0.2-0.8-0.5-1c-0.3-0.2-0.8-0.4-1.3-0.6
			c-0.5-0.1-1.1-0.3-1.6-0.4c-0.6-0.1-1.1-0.3-1.6-0.5c-0.5-0.2-0.9-0.5-1.3-0.9c-0.3-0.4-0.5-0.9-0.5-1.6c0-0.5,0.1-1,0.4-1.4
			c0.2-0.4,0.5-0.7,0.9-0.9c0.4-0.2,0.8-0.4,1.3-0.5c0.5-0.1,0.9-0.2,1.4-0.2c0.6,0,1.1,0.1,1.6,0.2c0.5,0.1,0.9,0.3,1.3,0.5
			c0.4,0.3,0.7,0.6,0.9,1c0.2,0.4,0.4,1,0.4,1.6H56c0-0.3-0.1-0.6-0.3-0.8c-0.1-0.2-0.3-0.4-0.6-0.5c-0.2-0.1-0.5-0.2-0.8-0.3
			c-0.3-0.1-0.6-0.1-0.8-0.1c-0.3,0-0.5,0-0.8,0.1c-0.3,0-0.5,0.1-0.7,0.2c-0.2,0.1-0.4,0.2-0.5,0.4c-0.1,0.2-0.2,0.4-0.2,0.7
			c0,0.3,0.1,0.5,0.3,0.7c0.2,0.2,0.5,0.4,0.8,0.5c0.3,0.1,0.7,0.2,1.1,0.3c0.4,0.1,0.8,0.2,1.2,0.3c0.4,0.1,0.9,0.2,1.3,0.3
			c0.4,0.1,0.8,0.3,1.1,0.5c0.3,0.2,0.6,0.5,0.8,0.8c0.2,0.3,0.3,0.8,0.3,1.3c0,0.6-0.1,1.2-0.4,1.6c-0.3,0.4-0.6,0.8-1,1
			c-0.4,0.3-0.9,0.4-1.4,0.5c-0.5,0.1-1.1,0.2-1.6,0.2c-0.6,0-1.1-0.1-1.7-0.2c-0.5-0.1-1-0.3-1.4-0.6c-0.4-0.3-0.7-0.6-1-1.1
			c-0.2-0.5-0.4-1-0.4-1.6H51C51,146.5,51.1,146.8,51.2,147z"/>
		<path class="st0" d="M68.3,149.4v-1.7h0c-0.4,0.6-0.8,1.1-1.4,1.4c-0.6,0.3-1.2,0.5-2,0.5c-0.7,0-1.3-0.1-1.7-0.3
			c-0.5-0.2-0.8-0.4-1.1-0.8c-0.3-0.3-0.5-0.7-0.6-1.2c-0.1-0.5-0.2-1-0.2-1.5v-6.9H63v7.1c0,0.6,0.2,1.2,0.6,1.5
			c0.4,0.4,0.9,0.6,1.6,0.6c0.5,0,1-0.1,1.4-0.2c0.4-0.2,0.7-0.4,1-0.7c0.3-0.3,0.4-0.6,0.6-1c0.1-0.4,0.2-0.8,0.2-1.3v-5.9h1.7
			v10.5H68.3z"/>
		<path class="st0" d="M75.3,138.9v1.5h0c0.8-1.2,1.9-1.8,3.4-1.8c0.6,0,1.2,0.1,1.8,0.4c0.5,0.3,0.9,0.7,1.1,1.4
			c0.4-0.6,0.8-1,1.4-1.3c0.6-0.3,1.2-0.5,1.9-0.5c0.5,0,1,0.1,1.4,0.2c0.4,0.1,0.8,0.3,1.1,0.5c0.3,0.2,0.5,0.6,0.7,0.9
			c0.2,0.4,0.3,0.8,0.3,1.4v7.7h-1.7v-6.9c0-0.3,0-0.6-0.1-0.9c-0.1-0.3-0.2-0.5-0.3-0.7c-0.1-0.2-0.4-0.4-0.6-0.5
			c-0.3-0.1-0.6-0.2-1-0.2c-0.8,0-1.5,0.2-2,0.7c-0.5,0.5-0.7,1.1-0.7,1.9v6.5h-1.7v-6.9c0-0.3,0-0.6-0.1-0.9
			c-0.1-0.3-0.2-0.5-0.3-0.7c-0.1-0.2-0.3-0.4-0.6-0.5c-0.2-0.1-0.6-0.2-1-0.2c-0.5,0-0.9,0.1-1.3,0.3c-0.4,0.2-0.6,0.4-0.9,0.7
			s-0.4,0.6-0.5,0.9c-0.1,0.3-0.2,0.6-0.2,0.8v6.5h-1.7v-10.5H75.3z"/>
		<path class="st0" d="M99.6,148.7c-0.8,0.6-1.8,0.9-3,0.9c-0.8,0-1.6-0.1-2.2-0.4c-0.6-0.3-1.1-0.6-1.5-1.1s-0.7-1.1-0.9-1.7
			c-0.2-0.7-0.3-1.4-0.4-2.2c0-0.8,0.1-1.5,0.4-2.2c0.2-0.7,0.6-1.2,1-1.7c0.4-0.5,1-0.9,1.6-1.1c0.6-0.3,1.3-0.4,2-0.4
			c0.9,0,1.7,0.2,2.3,0.6c0.6,0.4,1.1,0.9,1.5,1.5c0.4,0.6,0.6,1.2,0.8,1.9c0.1,0.7,0.2,1.4,0.2,2h-7.8c0,0.5,0,0.9,0.2,1.3
			c0.1,0.4,0.3,0.8,0.6,1.1c0.3,0.3,0.6,0.6,1,0.8c0.4,0.2,0.9,0.3,1.5,0.3c0.7,0,1.3-0.2,1.8-0.5c0.5-0.3,0.8-0.8,0.9-1.5h1.7
			C100.9,147.2,100.4,148.1,99.6,148.7z M99.2,142c-0.2-0.4-0.4-0.7-0.6-0.9s-0.6-0.5-0.9-0.6c-0.4-0.2-0.8-0.2-1.2-0.2
			c-0.4,0-0.8,0.1-1.2,0.2c-0.4,0.2-0.7,0.4-0.9,0.6c-0.3,0.3-0.5,0.6-0.6,0.9c-0.1,0.4-0.2,0.7-0.3,1.1h6
			C99.4,142.7,99.3,142.4,99.2,142z"/>
		<path class="st0" d="M105.8,138.9v2.2h0c0.4-0.8,0.9-1.5,1.5-1.9c0.6-0.4,1.4-0.6,2.3-0.6v1.8c-0.7,0-1.3,0.1-1.8,0.3
			c-0.5,0.2-0.9,0.5-1.2,0.8c-0.3,0.4-0.5,0.8-0.6,1.3c-0.1,0.5-0.2,1.1-0.2,1.8v4.7h-1.7v-10.5H105.8z"/>
		<path class="st0" d="M128,137c-0.7-0.5-1.6-0.8-2.6-0.8c-0.9,0-1.6,0.2-2.2,0.5c-0.6,0.3-1.1,0.8-1.5,1.3
			c-0.4,0.5-0.7,1.2-0.9,1.9c-0.2,0.7-0.3,1.4-0.3,2.2c0,0.8,0.1,1.6,0.3,2.3c0.2,0.7,0.5,1.4,0.9,1.9c0.4,0.5,0.9,1,1.5,1.3
			c0.6,0.3,1.4,0.5,2.2,0.5c0.6,0,1.2-0.1,1.7-0.3s0.9-0.5,1.3-0.9s0.6-0.8,0.8-1.3c0.2-0.5,0.3-1.1,0.4-1.7h1.9
			c-0.2,1.8-0.8,3.2-1.9,4.2c-1.1,1-2.5,1.5-4.4,1.5c-1.1,0-2.1-0.2-2.9-0.6c-0.8-0.4-1.5-0.9-2.1-1.6c-0.6-0.7-1-1.5-1.2-2.4
			c-0.3-0.9-0.4-1.9-0.4-3c0-1.1,0.1-2,0.4-3c0.3-0.9,0.7-1.7,1.3-2.4c0.6-0.7,1.3-1.2,2.1-1.6c0.9-0.4,1.8-0.6,2.9-0.6
			c0.8,0,1.5,0.1,2.1,0.3c0.7,0.2,1.3,0.5,1.8,0.9c0.5,0.4,1,0.9,1.3,1.5c0.4,0.6,0.6,1.3,0.7,2h-1.9
			C129.3,138.3,128.8,137.5,128,137z"/>
		<path class="st0" d="M134.6,142c0.2-0.7,0.5-1.2,1-1.7c0.4-0.5,1-0.9,1.6-1.2c0.6-0.3,1.4-0.4,2.2-0.4c0.8,0,1.6,0.1,2.2,0.4
			s1.2,0.7,1.6,1.2c0.4,0.5,0.8,1.1,1,1.7c0.2,0.7,0.3,1.4,0.3,2.2c0,0.8-0.1,1.5-0.3,2.1s-0.5,1.2-1,1.7c-0.4,0.5-1,0.9-1.6,1.2
			c-0.6,0.3-1.4,0.4-2.2,0.4c-0.8,0-1.6-0.1-2.2-0.4c-0.6-0.3-1.2-0.7-1.6-1.2c-0.4-0.5-0.8-1.1-1-1.7s-0.3-1.4-0.3-2.1
			C134.3,143.4,134.4,142.7,134.6,142z M136.4,145.8c0.2,0.5,0.4,0.9,0.7,1.2c0.3,0.3,0.6,0.6,1,0.8c0.4,0.2,0.8,0.3,1.3,0.3
			c0.4,0,0.9-0.1,1.3-0.3c0.4-0.2,0.7-0.4,1-0.8c0.3-0.3,0.5-0.7,0.7-1.2c0.2-0.5,0.3-1.1,0.3-1.7c0-0.6-0.1-1.2-0.3-1.7
			c-0.2-0.5-0.4-0.9-0.7-1.2c-0.3-0.3-0.6-0.6-1-0.8c-0.4-0.2-0.8-0.3-1.3-0.3c-0.4,0-0.9,0.1-1.3,0.3c-0.4,0.2-0.7,0.4-1,0.8
			s-0.5,0.8-0.7,1.2c-0.2,0.5-0.3,1.1-0.3,1.7C136.1,144.8,136.2,145.3,136.4,145.8z"/>
		<path class="st0" d="M149.3,138.9v1.7h0c0.7-1.3,1.8-1.9,3.4-1.9c0.7,0,1.3,0.1,1.7,0.3c0.5,0.2,0.8,0.5,1.1,0.8s0.5,0.7,0.6,1.2
			c0.1,0.5,0.2,1,0.2,1.5v6.9h-1.7v-7.1c0-0.6-0.2-1.2-0.6-1.5c-0.4-0.4-0.9-0.6-1.6-0.6c-0.5,0-1,0.1-1.4,0.2
			c-0.4,0.2-0.7,0.4-1,0.7c-0.3,0.3-0.4,0.6-0.6,1c-0.1,0.4-0.2,0.8-0.2,1.3v5.9h-1.7v-10.5H149.3z"/>
		<path class="st0" d="M163,149.4l-3.9-10.5h1.9l2.9,8.7h0l2.9-8.7h1.8l-3.8,10.5H163z"/>
		<path class="st0" d="M178.8,148.7c-0.8,0.6-1.8,0.9-3,0.9c-0.8,0-1.6-0.1-2.2-0.4c-0.6-0.3-1.1-0.6-1.5-1.1
			c-0.4-0.5-0.7-1.1-0.9-1.7c-0.2-0.7-0.3-1.4-0.4-2.2c0-0.8,0.1-1.5,0.4-2.2c0.2-0.7,0.6-1.2,1-1.7c0.4-0.5,1-0.9,1.6-1.1
			c0.6-0.3,1.3-0.4,2-0.4c0.9,0,1.7,0.2,2.3,0.6c0.6,0.4,1.1,0.9,1.5,1.5c0.4,0.6,0.6,1.2,0.8,1.9c0.1,0.7,0.2,1.4,0.2,2h-7.8
			c0,0.5,0,0.9,0.2,1.3c0.1,0.4,0.3,0.8,0.6,1.1c0.3,0.3,0.6,0.6,1,0.8c0.4,0.2,0.9,0.3,1.5,0.3c0.7,0,1.3-0.2,1.8-0.5
			c0.5-0.3,0.8-0.8,0.9-1.5h1.7C180.1,147.2,179.6,148.1,178.8,148.7z M178.4,142c-0.2-0.4-0.4-0.7-0.6-0.9
			c-0.3-0.3-0.6-0.5-0.9-0.6c-0.4-0.2-0.8-0.2-1.2-0.2c-0.4,0-0.8,0.1-1.2,0.2c-0.4,0.2-0.7,0.4-0.9,0.6c-0.3,0.3-0.5,0.6-0.6,0.9
			c-0.1,0.4-0.2,0.7-0.3,1.1h6C178.7,142.7,178.6,142.4,178.4,142z"/>
		<path class="st0" d="M185.1,138.9v1.7h0c0.7-1.3,1.8-1.9,3.4-1.9c0.7,0,1.3,0.1,1.7,0.3c0.5,0.2,0.8,0.5,1.1,0.8
			c0.3,0.3,0.5,0.7,0.6,1.2c0.1,0.5,0.2,1,0.2,1.5v6.9h-1.7v-7.1c0-0.6-0.2-1.2-0.6-1.5c-0.4-0.4-0.9-0.6-1.6-0.6
			c-0.5,0-1,0.1-1.4,0.2c-0.4,0.2-0.7,0.4-1,0.7c-0.3,0.3-0.4,0.6-0.6,1c-0.1,0.4-0.2,0.8-0.2,1.3v5.9h-1.7v-10.5H185.1z"/>
		<path class="st0" d="M196.1,137v-2.1h1.7v2.1H196.1z M197.8,138.9v10.5h-1.7v-10.5H197.8z"/>
		<path class="st0" d="M209.1,148.7c-0.8,0.6-1.8,0.9-3,0.9c-0.8,0-1.6-0.1-2.2-0.4c-0.6-0.3-1.1-0.6-1.5-1.1
			c-0.4-0.5-0.7-1.1-0.9-1.7c-0.2-0.7-0.3-1.4-0.4-2.2c0-0.8,0.1-1.5,0.4-2.2c0.2-0.7,0.6-1.2,1-1.7c0.4-0.5,1-0.9,1.6-1.1
			c0.6-0.3,1.3-0.4,2-0.4c0.9,0,1.7,0.2,2.3,0.6c0.6,0.4,1.1,0.9,1.5,1.5c0.4,0.6,0.6,1.2,0.8,1.9c0.1,0.7,0.2,1.4,0.2,2h-7.8
			c0,0.5,0,0.9,0.2,1.3c0.1,0.4,0.3,0.8,0.6,1.1c0.3,0.3,0.6,0.6,1,0.8c0.4,0.2,0.9,0.3,1.5,0.3c0.7,0,1.3-0.2,1.8-0.5
			c0.5-0.3,0.8-0.8,0.9-1.5h1.7C210.4,147.2,209.9,148.1,209.1,148.7z M208.7,142c-0.2-0.4-0.4-0.7-0.6-0.9s-0.6-0.5-0.9-0.6
			c-0.4-0.2-0.8-0.2-1.2-0.2c-0.4,0-0.8,0.1-1.2,0.2c-0.4,0.2-0.7,0.4-0.9,0.6c-0.3,0.3-0.5,0.6-0.6,0.9c-0.1,0.4-0.2,0.7-0.3,1.1h6
			C208.9,142.7,208.8,142.4,208.7,142z"/>
		<path class="st0" d="M215.4,138.9v1.7h0c0.7-1.3,1.8-1.9,3.4-1.9c0.7,0,1.3,0.1,1.7,0.3c0.5,0.2,0.8,0.5,1.1,0.8s0.5,0.7,0.6,1.2
			c0.1,0.5,0.2,1,0.2,1.5v6.9h-1.7v-7.1c0-0.6-0.2-1.2-0.6-1.5c-0.4-0.4-0.9-0.6-1.6-0.6c-0.5,0-1,0.1-1.4,0.2
			c-0.4,0.2-0.7,0.4-1,0.7c-0.3,0.3-0.4,0.6-0.6,1c-0.1,0.4-0.2,0.8-0.2,1.3v5.9h-1.7v-10.5H215.4z"/>
		<path class="st0" d="M232.5,140.7c-0.4-0.4-1-0.5-1.7-0.5c-0.6,0-1.1,0.1-1.6,0.3c-0.4,0.2-0.8,0.5-1,0.9
			c-0.2,0.4-0.4,0.8-0.5,1.3c-0.1,0.5-0.2,1-0.2,1.5c0,0.5,0.1,1,0.2,1.4c0.1,0.5,0.3,0.9,0.5,1.2c0.2,0.4,0.6,0.6,1,0.9
			c0.4,0.2,0.9,0.3,1.4,0.3c0.8,0,1.5-0.2,2-0.7c0.5-0.4,0.8-1.1,0.9-1.9h1.8c-0.2,1.3-0.7,2.3-1.4,3c-0.8,0.7-1.8,1.1-3.2,1.1
			c-0.8,0-1.5-0.1-2.1-0.4c-0.6-0.3-1.1-0.6-1.5-1.1c-0.4-0.5-0.7-1-0.9-1.7c-0.2-0.7-0.3-1.4-0.3-2.2c0-0.8,0.1-1.5,0.3-2.2
			c0.2-0.7,0.5-1.3,0.9-1.8c0.4-0.5,0.9-0.9,1.5-1.2s1.3-0.4,2.2-0.4c0.6,0,1.1,0.1,1.7,0.2c0.5,0.1,1,0.4,1.4,0.7
			c0.4,0.3,0.7,0.7,1,1.1c0.3,0.5,0.4,1,0.5,1.6h-1.8C233.2,141.6,232.9,141.1,232.5,140.7z"/>
		<path class="st0" d="M245.7,148.7c-0.8,0.6-1.8,0.9-3,0.9c-0.8,0-1.6-0.1-2.2-0.4c-0.6-0.3-1.1-0.6-1.5-1.1s-0.7-1.1-0.9-1.7
			c-0.2-0.7-0.3-1.4-0.4-2.2c0-0.8,0.1-1.5,0.4-2.2c0.2-0.7,0.6-1.2,1-1.7c0.4-0.5,1-0.9,1.6-1.1c0.6-0.3,1.3-0.4,2-0.4
			c0.9,0,1.7,0.2,2.3,0.6c0.6,0.4,1.1,0.9,1.5,1.5c0.4,0.6,0.6,1.2,0.8,1.9c0.1,0.7,0.2,1.4,0.2,2h-7.8c0,0.5,0,0.9,0.2,1.3
			c0.1,0.4,0.3,0.8,0.6,1.1c0.3,0.3,0.6,0.6,1,0.8c0.4,0.2,0.9,0.3,1.5,0.3c0.7,0,1.3-0.2,1.8-0.5c0.5-0.3,0.8-0.8,0.9-1.5h1.7
			C247,147.2,246.5,148.1,245.7,148.7z M245.3,142c-0.2-0.4-0.4-0.7-0.6-0.9c-0.3-0.3-0.6-0.5-0.9-0.6c-0.4-0.2-0.8-0.2-1.2-0.2
			c-0.4,0-0.8,0.1-1.2,0.2c-0.4,0.2-0.7,0.4-0.9,0.6c-0.3,0.3-0.5,0.6-0.6,0.9c-0.1,0.4-0.2,0.7-0.3,1.1h6
			C245.5,142.7,245.4,142.4,245.3,142z"/>
	</g>
</g>
<g>
	<path class="st0" d="M74.9,87.2c0-2.6-0.3-4.7-0.9-6.3c-0.6-1.5-1.6-2.7-3-3.5c-1.4-0.8-3.2-1.3-5.4-1.5c-2.2-0.2-5-0.3-8.3-0.3
		H41.9c-2.9,0-5.4,0.1-7.4,0.2c-2,0.2-3.7,0.5-5,1c-1.3,0.5-2.3,1.2-3,2.2c-0.7,0.9-1.2,2.2-1.5,3.8c-0.3,1.6-0.5,3.5-0.6,5.7
		c0,2.3-0.1,5-0.1,8.2c0,3.2,0,5.9,0.1,8.2c0.1,2.3,0.2,4.2,0.6,5.7c0.3,1.6,0.8,2.8,1.5,3.8c0.7,0.9,1.7,1.7,3,2.2
		c1.3,0.5,3,0.8,5,1c2,0.2,4.5,0.2,7.4,0.2h15.4c2.6,0,4.8-0.1,6.6-0.2c1.9-0.1,3.4-0.4,4.7-0.7c1.3-0.4,2.4-0.8,3.2-1.4
		c0.8-0.6,1.4-1.4,1.9-2.3c0.4-0.9,0.8-2.1,0.9-3.4c0.2-1.3,0.2-2.8,0.2-4.6h6.6c0,2.1-0.1,4-0.4,5.7c-0.3,1.7-0.8,3.2-1.5,4.5
		c-0.7,1.3-1.6,2.5-2.8,3.4c-1.2,1-2.6,1.8-4.4,2.4c-1.8,0.6-3.9,1.1-6.4,1.4c-2.5,0.3-5.4,0.4-8.7,0.4H41.9c-4,0-7.4-0.2-10.2-0.7
		c-2.8-0.5-5-1.2-6.8-2.1s-3.2-2.2-4.1-3.6c-1-1.4-1.7-3.2-2.1-5.1c-0.4-2-0.7-4.2-0.8-6.6c-0.1-2.5-0.1-5.2-0.1-8.2
		c0-3,0-5.7,0.1-8.2c0.1-2.5,0.3-4.7,0.8-6.6c0.4-2,1.2-3.7,2.1-5.1c1-1.4,2.4-2.7,4.1-3.6c1.8-1,4.1-1.7,6.8-2.1
		c2.8-0.5,6.2-0.7,10.2-0.7h15.4c3.3,0,6.2,0.1,8.7,0.4c2.5,0.3,4.6,0.7,6.4,1.4c1.8,0.6,3.3,1.4,4.4,2.3c1.2,0.9,2.1,2,2.8,3.3
		c0.7,1.3,1.2,2.7,1.5,4.2c0.3,1.6,0.4,3.3,0.4,5.3H74.9z"/>
	<path class="st0" d="M157.1,87.2c0-2.6-0.3-4.7-0.9-6.3c-0.6-1.5-1.6-2.7-3-3.5c-1.4-0.8-3.2-1.3-5.4-1.5c-2.2-0.2-5-0.3-8.3-0.3
		h-15.4c-2.9,0-5.4,0.1-7.4,0.2c-2,0.2-3.7,0.5-5,1c-1.3,0.5-2.3,1.2-3,2.2c-0.7,0.9-1.2,2.2-1.5,3.8c-0.3,1.6-0.5,3.5-0.6,5.7
		c0,2.3-0.1,5-0.1,8.2c0,3.2,0,5.9,0.1,8.2c0.1,2.3,0.2,4.2,0.6,5.7c0.3,1.6,0.8,2.8,1.5,3.8c0.7,0.9,1.7,1.7,3,2.2
		c1.3,0.5,3,0.8,5,1c2,0.2,4.5,0.2,7.4,0.2h15.4c2.6,0,4.8-0.1,6.6-0.2c1.9-0.1,3.4-0.4,4.7-0.7c1.3-0.4,2.4-0.8,3.2-1.4
		c0.8-0.6,1.4-1.4,1.9-2.3c0.4-0.9,0.8-2.1,0.9-3.4c0.2-1.3,0.2-2.8,0.2-4.6h6.6c0,2.1-0.1,4-0.4,5.7c-0.3,1.7-0.8,3.2-1.5,4.5
		c-0.7,1.3-1.6,2.5-2.8,3.4c-1.2,1-2.6,1.8-4.4,2.4c-1.8,0.6-3.9,1.1-6.4,1.4c-2.5,0.3-5.4,0.4-8.7,0.4h-15.4c-4,0-7.4-0.2-10.2-0.7
		c-2.8-0.5-5-1.2-6.8-2.1c-1.8-1-3.2-2.2-4.1-3.6c-1-1.4-1.7-3.2-2.1-5.1c-0.4-2-0.7-4.2-0.8-6.6c-0.1-2.5-0.1-5.2-0.1-8.2
		c0-3,0-5.7,0.1-8.2c0.1-2.5,0.3-4.7,0.8-6.6c0.4-2,1.2-3.7,2.1-5.1c1-1.4,2.4-2.7,4.1-3.6c1.8-1,4.1-1.7,6.8-2.1
		c2.8-0.5,6.2-0.7,10.2-0.7h15.4c3.3,0,6.2,0.1,8.7,0.4c2.5,0.3,4.6,0.7,6.4,1.4c1.8,0.6,3.3,1.4,4.4,2.3c1.2,0.9,2.1,2,2.8,3.3
		c0.7,1.3,1.2,2.7,1.5,4.2c0.3,1.6,0.4,3.3,0.4,5.3H157.1z"/>
	<path class="st0" d="M238.1,71.4v5.3h-26.4V122h-6.6V76.6h-26.4v-5.3H238.1z"/>
</g>
<g>
	<g>
		<path class="st0" d="M28.2,160.2v1.3h-3.6v9.8h-1.5v-9.8h-3.6v-1.3H28.2z"/>
		<path class="st0" d="M38.7,160.2h7.8v1.4h-6.4v3.4H46v1.3h-5.9v3.8h6.5v1.3h-7.9V160.2z"/>
		<path class="st0" d="M65.1,161c0.7,0.7,1.2,1.6,1.2,2.5h-1.4c-0.2-0.7-0.5-1.3-0.9-1.7c-0.5-0.4-1.1-0.6-2-0.6
			c-1,0-1.9,0.4-2.5,1.2c-0.6,0.8-1,2-1,3.5c0,1.3,0.3,2.4,0.9,3.2c0.6,0.8,1.4,1.2,2.6,1.2c1.1,0,1.9-0.4,2.4-1.3
			c0.3-0.4,0.5-1,0.7-1.8h1.4c-0.1,1.2-0.5,2.2-1.2,2.9c-0.8,1-2,1.4-3.4,1.4c-1.2,0-2.3-0.4-3.1-1.2c-1.1-1-1.7-2.6-1.7-4.8
			c0-1.6,0.4-3,1.2-4c0.9-1.1,2.1-1.7,3.7-1.7C63.3,159.9,64.4,160.2,65.1,161z"/>
		<path class="st0" d="M77.4,160.2h1.5v4.6h5.5v-4.6h1.5v11.1h-1.5v-5.2h-5.5v5.2h-1.5V160.2z"/>
		<path class="st0" d="M97.1,160.2h1.7l5.4,9v-9h1.4v11.1H104l-5.4-9v9h-1.4V160.2z"/>
		<path class="st0" d="M125.8,161.8c0.7,1,1.1,2.2,1.1,3.8c0,1.7-0.4,3-1.2,4.1c-1,1.3-2.3,1.9-4.1,1.9c-1.7,0-3-0.6-3.9-1.7
			c-0.8-1.1-1.3-2.5-1.3-4.1c0-1.5,0.4-2.8,1.1-3.9c0.9-1.4,2.3-2.1,4.1-2.1C123.5,159.9,124.9,160.5,125.8,161.8z M124.5,168.9
			c0.6-1,0.9-2,0.9-3.3c0-1.3-0.3-2.4-1-3.2c-0.7-0.8-1.6-1.2-2.7-1.2c-1.1,0-2,0.4-2.7,1.2c-0.7,0.8-1.1,2-1.1,3.5
			c0,1.2,0.3,2.3,0.9,3.1c0.6,0.8,1.6,1.3,2.9,1.3C123,170.3,123.9,169.8,124.5,168.9z"/>
		<path class="st0" d="M137.6,160.2h1.5v9.8h5.4v1.3h-6.8V160.2z"/>
		<path class="st0" d="M163.8,161.8c0.7,1,1.1,2.2,1.1,3.8c0,1.7-0.4,3-1.2,4.1c-1,1.3-2.3,1.9-4.1,1.9c-1.7,0-3-0.6-3.9-1.7
			c-0.8-1.1-1.3-2.5-1.3-4.1c0-1.5,0.4-2.8,1.1-3.9c0.9-1.4,2.3-2.1,4.1-2.1C161.5,159.9,162.9,160.5,163.8,161.8z M162.5,168.9
			c0.6-1,0.9-2,0.9-3.3c0-1.3-0.3-2.4-1-3.2c-0.7-0.8-1.6-1.2-2.7-1.2c-1.1,0-2,0.4-2.7,1.2c-0.7,0.8-1.1,2-1.1,3.5
			c0,1.2,0.3,2.3,0.9,3.1c0.6,0.8,1.6,1.3,2.9,1.3C161,170.3,161.9,169.8,162.5,168.9z"/>
		<path class="st0" d="M182.7,160.5c1.1,0.6,1.7,1.6,1.9,3.1h-1.4c-0.2-0.8-0.5-1.4-1.1-1.8c-0.5-0.4-1.2-0.6-2-0.6
			c-1,0-1.8,0.4-2.5,1.2s-1,1.9-1,3.5c0,1.3,0.3,2.4,0.8,3.2c0.5,0.8,1.4,1.2,2.7,1.2c1,0,1.7-0.3,2.4-0.9c0.6-0.6,0.9-1.5,1-2.8
			h-3.4v-1.3h4.7v6h-0.9l-0.4-1.4c-0.5,0.6-0.9,0.9-1.3,1.2c-0.6,0.4-1.4,0.6-2.4,0.6c-1.3,0-2.3-0.4-3.2-1.3
			c-1-1.1-1.5-2.5-1.5-4.4c0-1.9,0.5-3.3,1.4-4.5c0.9-1.1,2.1-1.6,3.5-1.6C181.1,159.9,182,160.1,182.7,160.5z"/>
		<path class="st0" d="M196.5,160.2h1.5v11.1h-1.5V160.2z"/>
		<path class="st0" d="M209.5,160.2h7.8v1.4h-6.4v3.4h5.9v1.3h-5.9v3.8h6.5v1.3h-7.9V160.2z"/>
		<path class="st0" d="M229.3,167.7c0,0.6,0.2,1.1,0.4,1.5c0.5,0.7,1.3,1.1,2.5,1.1c0.5,0,1-0.1,1.4-0.2c0.8-0.3,1.3-0.9,1.3-1.7
			c0-0.6-0.2-1-0.5-1.3c-0.4-0.3-0.9-0.5-1.7-0.7l-1.4-0.3c-0.9-0.2-1.6-0.5-2-0.7c-0.7-0.5-1-1.2-1-2.1c0-1,0.3-1.8,1-2.5
			c0.6-0.6,1.6-1,2.8-1c1.1,0,2,0.3,2.8,0.8c0.8,0.6,1.2,1.5,1.2,2.7h-1.4c-0.1-0.6-0.2-1.1-0.4-1.4c-0.4-0.6-1.1-0.9-2.2-0.9
			c-0.8,0-1.4,0.2-1.8,0.6c-0.4,0.4-0.5,0.8-0.5,1.3c0,0.5,0.2,0.9,0.6,1.2c0.3,0.2,0.9,0.4,1.9,0.6l1.5,0.4
			c0.7,0.2,1.2,0.4,1.6,0.7c0.7,0.5,1,1.3,1,2.3c0,1.2-0.4,2.1-1.3,2.6s-1.8,0.8-2.9,0.8c-1.3,0-2.3-0.4-3.1-1.1
			c-0.7-0.7-1.1-1.7-1.1-2.9H229.3z"/>
	</g>
</g>
<rect x="-0.1" y="-0.2" class="st1" width="256" height="256"/>
</svg>
